[   2s] CDP targets: 1
[   2s]   page: file:///C:/Users/runneradmin/.comfy-test-cache/desktop/ComfyUI/resources/desktop-ui/index.html#/not-supported | ComfyUI
[   3s] Main page: file:///C:/Users/runneradmin/.comfy-test-cache/desktop/ComfyUI/resources/desktop-ui/index.html#/not-supported | ComfyUI
[   3s] Buttons: ['Learn More', 'Report Issue', 'Continue']
[   3s]   wizard: COMFY_TEST_GPU=0 platform=win32 preferred=['CPU']
[   6s]   clicked [BTN|Continue]
[   9s]   url: file:///C:/Users/runneradmin/.comfy-test-cache/desktop/ComfyUI/resources/desktop-ui/index.html#/not-supported -> file:///C:/Users/runneradmin/.comfy-test-cache/desktop/ComfyUI/resources/desktop-ui/index.html#/install
[  10s]   clicked [TILE|CPU]
[  13s]   clicked [BTN|Next]
[  20s]   clicked [BTN|Next]
[  24s]   clicked [BTN|Install]
[  27s]   url: file:///C:/Users/runneradmin/.comfy-test-cache/desktop/ComfyUI/resources/desktop-ui/index.html#/install -> file:///C:/Users/runneradmin/.comfy-test-cache/desktop/ComfyUI/resources/desktop-ui/index.html#/server-start
[ 199s]   /system_stats up after 195s
[ 199s]   app: waiting for backend stability (continuous /system_stats up for 30s)
[ 199s]   app: /system_stats up; awaiting 30s of stability
[ 229s]   app: backend stable for 30s; proceeding
[ 229s]   capturing canvas load...
[ 238s]   post: waiting for Cloud upsell
[ 271s]   post: Cloud upsell not found, skipping
[ 271s]   post: pressed Escape (Cloud upsell fallback)
[ 273s]   post: waiting for Close Templates
[ 285s]   post: Close Templates not found, skipping
[ 285s]   post: pressed Escape (Close Templates fallback)
[ 287s]   post: waiting for Extensions
[ 288s]   post: clicked Extensions via [button[aria-label="Extensions"]:visible]
[ 290s]   ext: node meta = display='SAM3' publisher='pznodes' version='0.1.19'
[ 293s]   ext: searching "SAM3"
[ 296s]   ext: clicking SAM3 by pznodes tile
[ 300s]   ext: scrolling to + opening version selector
[ 303s]   ext: selected 0.1.19
[ 305s]   ext: clicking right-panel Install
[ 306s]   ext: clicked Install (last of 8 visible)
[ 314s]   ext: waiting for "Apply Changes" toast
[ 315s]   ext: clicked Apply Changes
[ 320s]   app: Apply Changes already triggered in-app restart, skipping pkill
[ 325s]   app: relaunching with CDP
[ 325s]   app: waiting for CDP
[ 326s]   app: CDP up after 1s
[ 326s]   app: reconnecting Playwright
[ 327s]   app: attached to http://127.0.0.1:8000/
[ 460s]   app: server ready after 33s
[ 460s]   app: waiting for main canvas (window.app.graph)
[ 460s]   app: canvas ready after 1s (http://127.0.0.1:8000/)
[ 465s]   app: forcing renderer reload to refresh node-pack manifest
[ 469s]   app: canvas re-ready after reload in 3s
[ 472s]   ext: closing Nodes Manager dialog
[ 472s]   ext: dismissing What's New popup
[ 472s]   ext: closed What's New popup
[ 474s]   ext: dismissing Node Pack Issues modal (if present)
[ 475s]   ext: closed Node Pack Issues modal
[ 477s]   ext: opening Templates sidebar
[ 478s]   ext: clicked Templates
[ 482s]   ext: locating "comfyui-sam3" section in Templates panel
[ 483s]   ext: clicked comfyui-sam3 section
[ 486s]   ext: fetching comfy-test.toml from https://raw.githubusercontent.com/PozzettiAndrea/ComfyUI-SAM3/main/comfy-test.toml
[ 486s]   ext: cpu spec = exclude ['video_point_prompt']
[ 486s]   ext: picking first matching comfyui-sam3 template
[ 486s]   ext: 5 visible cards
[ 488s]   ext: clicked template image_seg_point
[ 493s]   ext: installing WS execution listener
[ 493s]   ext: clicking Run
[ 494s]   ext: clicked Run
[ 494s]   ext: waiting for execution_success / execution_error
[ 586s]   ext: WS events=230 elapsed=92s
[ 586s]     ws: {'type': 'progress_state', 'ts': 1778494808077}
[ 586s]     ws: {'type': 'progress_state', 'ts': 1778494808079}
[ 586s]     ws: {'type': 'executing', 'ts': 1778494808080}
[ 586s]     ws: {'type': 'progress_state', 'ts': 1778494870232}
[ 586s]     ws: {'type': 'progress_state', 'ts': 1778494870234}
[ 586s]     ws: {'type': 'executing', 'ts': 1778494870246}
[ 586s]     ws: {'type': 'executed', 'ts': 1778494870316}
[ 586s]     ws: {'type': 'progress_state', 'ts': 1778494870318}
[ 586s]     ws: {'type': 'progress_state', 'ts': 1778494870320}
[ 586s]     ws: {'type': 'executing', 'ts': 1778494870321}
[ 586s]     ws: {'type': 'executed', 'ts': 1778494870401}
[ 586s]     ws: {'type': 'progress_state', 'ts': 1778494870403}
[ 586s]     ws: {'type': 'execution_success', 'ts': 1778494870419}
[ 586s]     ws: {'type': 'status', 'ts': 1778494870420}
[ 586s]     ws: {'type': 'executing', 'ts': 1778494870421}
[ 586s]   ext: execution_success after 92s
[ 591s]   ext: fetching comfy-test.toml from https://raw.githubusercontent.com/PozzettiAndrea/ComfyUI-SAM3/main/comfy-test.toml
[ 591s]   ext: cpu spec = exclude ['video_point_prompt']
[ 591s]   loop: workflows/ from $COMFY_TEST_WORKFLOWS -> ['image_seg_point', 'image_seg_text', 'scene_seg', 'scene_seg_interactive', 'video_point_prompt']
[ 591s]   loop: spec=exclude items=['video_point_prompt'] -> 4 workflow(s) ['image_seg_point', 'image_seg_text', 'scene_seg', 'scene_seg_interactive']
[ 591s]   loop: matching=4 first_ran='image_seg_point' remaining=3 -> ['image_seg_text', 'scene_seg', 'scene_seg_interactive']
[ 591s]   loop: full restart for workflow 2/4 (image_seg_text)
[ 591s]   loop: closing current browser
[ 591s]   loop: killing ComfyUI process
[ 596s]   loop: launching ComfyUI with --remote-debugging-port=0
[ 596s]   loop: waiting for DevToolsActivePort at C:\Users\runneradmin\AppData\Roaming\ComfyUI\DevToolsActivePort
[ 599s]   loop: DevToolsActivePort parse err: [Errno 13] Permission denied: 'C:\\Users\\runneradmin\\AppData\\Roaming\\ComfyUI\\DevToolsActivePort'
[ 600s]   loop: DevToolsActivePort -> 55851 after 5s
[ 600s]   loop: reconnecting Playwright on port 55851
[ 601s]   loop: attached to file:///C:/Users/runneradmin/.comfy-test-cache/desktop/ComfyUI/resources/desktop-ui/index.html#/desktop-start
[ 601s]   loop: server ready after 1s
[ 626s]   loop: canvas ready after 21s
[ 626s]   loop: forcing renderer reload
[ 630s]   loop: canvas ready after 3s
[ 633s]   ext: closing Nodes Manager dialog
[ 633s]   ext: dismissing What's New popup
[ 633s]   ext: What's New popup not present
[ 633s]   ext: dismissing Node Pack Issues modal (if present)
[ 633s]   ext: Node Pack Issues modal not present
[ 633s]   ext: opening Templates sidebar
[ 633s]   ext: clicked Templates
[ 638s]   ext: locating "comfyui-sam3" section in Templates panel
[ 640s]   ext: clicked comfyui-sam3 section
[ 642s]   ext: clicking template image_seg_text
[ 644s]   ext: clicked template image_seg_text
[ 649s]   ext: installing WS execution listener
[ 649s]   ext: clicking Run
[ 650s]   ext: clicked Run
[ 650s]   ext: waiting for execution_success / execution_error
[ 732s]   ext: WS events=24 elapsed=81s
[ 732s]     ws: {'type': 'progress_state', 'ts': 1778494939614}
[ 732s]     ws: {'type': 'progress_state', 'ts': 1778494939616}
[ 732s]     ws: {'type': 'executing', 'ts': 1778494939617}
[ 732s]     ws: {'type': 'progress_state', 'ts': 1778495015764}
[ 732s]     ws: {'type': 'progress_state', 'ts': 1778495015780}
[ 732s]     ws: {'type': 'executing', 'ts': 1778495015780}
[ 732s]     ws: {'type': 'executed', 'ts': 1778495015890}
[ 732s]     ws: {'type': 'progress_state', 'ts': 1778495015904}
[ 732s]     ws: {'type': 'progress_state', 'ts': 1778495015906}
[ 732s]     ws: {'type': 'executing', 'ts': 1778495015906}
[ 732s]     ws: {'type': 'executed', 'ts': 1778495016089}
[ 732s]     ws: {'type': 'progress_state', 'ts': 1778495016091}
[ 732s]     ws: {'type': 'execution_success', 'ts': 1778495016096}
[ 732s]     ws: {'type': 'status', 'ts': 1778495016097}
[ 732s]     ws: {'type': 'executing', 'ts': 1778495016097}
[ 732s]   ext: execution_success after 81s
[ 737s]   loop: full restart for workflow 3/4 (scene_seg)
[ 737s]   loop: closing current browser
[ 737s]   loop: killing ComfyUI process
[ 742s]   loop: launching ComfyUI with --remote-debugging-port=0
[ 742s]   loop: waiting for DevToolsActivePort at C:\Users\runneradmin\AppData\Roaming\ComfyUI\DevToolsActivePort
[ 743s]   loop: DevToolsActivePort parse err: [Errno 13] Permission denied: 'C:\\Users\\runneradmin\\AppData\\Roaming\\ComfyUI\\DevToolsActivePort'
[ 744s]   loop: DevToolsActivePort -> 56111 after 3s
[ 744s]   loop: reconnecting Playwright on port 56111
[ 745s]   loop: attached to file:///C:/Users/runneradmin/.comfy-test-cache/desktop/ComfyUI/resources/desktop-ui/index.html#/desktop-start
[ 745s]   loop: server ready after 1s
[ 769s]   loop: canvas ready after 21s
[ 769s]   loop: forcing renderer reload
[ 771s]   loop: canvas ready after 2s
[ 775s]   ext: closing Nodes Manager dialog
[ 775s]   ext: dismissing What's New popup
[ 775s]   ext: What's New popup not present
[ 775s]   ext: dismissing Node Pack Issues modal (if present)
[ 775s]   ext: Node Pack Issues modal not present
[ 775s]   ext: opening Templates sidebar
[ 775s]   ext: clicked Templates
[ 779s]   ext: locating "comfyui-sam3" section in Templates panel
[ 781s]   ext: clicked comfyui-sam3 section
[ 783s]   ext: clicking template scene_seg
[ 785s]   ext: clicked template scene_seg
[ 791s]   ext: installing WS execution listener
[ 791s]   ext: clicking Run
[ 791s]   ext: clicked Run
[ 791s]   ext: waiting for execution_success / execution_error
[ 888s]   ext: WS events=55 elapsed=96s
[ 888s]     ws: {'type': 'executing', 'ts': 1778495170359}
[ 888s]     ws: {'type': 'progress_state', 'ts': 1778495170645}
[ 888s]     ws: {'type': 'progress_state', 'ts': 1778495170658}
[ 888s]     ws: {'type': 'executing', 'ts': 1778495170658}
[ 888s]     ws: {'type': 'progress_state', 'ts': 1778495170661}
[ 888s]     ws: {'type': 'progress_state', 'ts': 1778495170664}
[ 888s]     ws: {'type': 'executing', 'ts': 1778495170665}
[ 888s]     ws: {'type': 'executed', 'ts': 1778495170900}
[ 888s]     ws: {'type': 'progress_state', 'ts': 1778495170902}
[ 888s]     ws: {'type': 'progress_state', 'ts': 1778495170905}
[ 888s]     ws: {'type': 'executing', 'ts': 1778495170905}
[ 888s]     ws: {'type': 'progress_state', 'ts': 1778495171511}
[ 888s]     ws: {'type': 'execution_success', 'ts': 1778495171517}
[ 888s]     ws: {'type': 'status', 'ts': 1778495171528}
[ 888s]     ws: {'type': 'executing', 'ts': 1778495171529}
[ 888s]   ext: execution_success after 96s
[ 893s]   loop: full restart for workflow 4/4 (scene_seg_interactive)
[ 893s]   loop: closing current browser
[ 893s]   loop: killing ComfyUI process
[ 898s]   loop: launching ComfyUI with --remote-debugging-port=0
[ 898s]   loop: waiting for DevToolsActivePort at C:\Users\runneradmin\AppData\Roaming\ComfyUI\DevToolsActivePort
[ 900s]   loop: DevToolsActivePort -> 56368 after 3s
[ 900s]   loop: reconnecting Playwright on port 56368
[ 901s]   loop: attached to file:///C:/Users/runneradmin/.comfy-test-cache/desktop/ComfyUI/resources/desktop-ui/index.html#/desktop-start
[ 901s]   loop: server ready after 1s
[ 927s]   loop: canvas ready after 22s
[ 927s]   loop: forcing renderer reload
[ 929s]   loop: canvas ready after 2s
[ 932s]   ext: closing Nodes Manager dialog
[ 932s]   ext: dismissing What's New popup
[ 932s]   ext: What's New popup not present
[ 932s]   ext: dismissing Node Pack Issues modal (if present)
[ 932s]   ext: Node Pack Issues modal not present
[ 932s]   ext: opening Templates sidebar
[ 933s]   ext: clicked Templates
[ 937s]   ext: locating "comfyui-sam3" section in Templates panel
[ 939s]   ext: clicked comfyui-sam3 section
[ 941s]   ext: clicking template scene_seg_interactive
[ 943s]   ext: clicked template scene_seg_interactive
[ 948s]   ext: installing WS execution listener
[ 948s]   ext: clicking Run
[ 948s]   ext: clicked Run
[ 948s]   ext: waiting for execution_success / execution_error
[1022s]   ext: WS events=23 elapsed=73s
[1022s]     ws: {'type': 'executing', 'ts': 1778495233777}
[1022s]     ws: {'type': 'progress_state', 'ts': 1778495238751}
[1022s]     ws: {'type': 'progress_state', 'ts': 1778495238753}
[1022s]     ws: {'type': 'executing', 'ts': 1778495238762}
[1022s]     ws: {'type': 'progress_state', 'ts': 1778495301322}
[1022s]     ws: {'type': 'progress', 'ts': 1778495301322}
[1022s]     ws: {'type': 'executed', 'ts': 1778495304625}
[1022s]     ws: {'type': 'progress_state', 'ts': 1778495304761}
[1022s]     ws: {'type': 'progress_state', 'ts': 1778495304771}
[1022s]     ws: {'type': 'executing', 'ts': 1778495304772}
[1022s]     ws: {'type': 'executed', 'ts': 1778495305334}
[1022s]     ws: {'type': 'progress_state', 'ts': 1778495305336}
[1022s]     ws: {'type': 'execution_success', 'ts': 1778495305349}
[1022s]     ws: {'type': 'status', 'ts': 1778495305353}
[1022s]     ws: {'type': 'executing', 'ts': 1778495305370}
[1022s]   ext: execution_success after 73s
[1027s] Captured 1187 frames
[1027s] Wrote D:\a\comfy-gpu-ci\comfy-gpu-ci\comfy-test-logs\SAM3-1010\dev\windows-desktop\results.json (4 workflow(s), sha=f054ce14b7cc)
ffmpeg version 7.1-essentials_build-www.gyan.dev Copyright (c) 2000-2024 the FFmpeg developers
  built with gcc 14.2.0 (Rev1, Built by MSYS2 project)
  configuration: --enable-gpl --enable-version3 --enable-static --disable-w32threads --disable-autodetect --enable-fontconfig --enable-iconv --enable-gnutls --enable-libxml2 --enable-gmp --enable-bzlib --enable-lzma --enable-zlib --enable-libsrt --enable-libssh --enable-libzmq --enable-avisynth --enable-sdl2 --enable-libwebp --enable-libx264 --enable-libx265 --enable-libxvid --enable-libaom --enable-libopenjpeg --enable-libvpx --enable-mediafoundation --enable-libass --enable-libfreetype --enable-libfribidi --enable-libharfbuzz --enable-libvidstab --enable-libvmaf --enable-libzimg --enable-amf --enable-cuda-llvm --enable-cuvid --enable-dxva2 --enable-d3d11va --enable-d3d12va --enable-ffnvcodec --enable-libvpl --enable-nvdec --enable-nvenc --enable-vaapi --enable-libgme --enable-libopenmpt --enable-libopencore-amrwb --enable-libmp3lame --enable-libtheora --enable-libvo-amrwbenc --enable-libgsm --enable-libopencore-amrnb --enable-libopus --enable-libspeex --enable-libvorbis --enable-librubberband
  libavutil      59. 39.100 / 59. 39.100
  libavcodec     61. 19.100 / 61. 19.100
  libavformat    61.  7.100 / 61.  7.100
  libavdevice    61.  3.100 / 61.  3.100
  libavfilter    10.  4.100 / 10.  4.100
  libswscale      8.  3.100 /  8.  3.100
  libswresample   5.  3.100 /  5.  3.100
  libpostproc    58.  3.100 / 58.  3.100
Input #0, image2, from 'D:\a\comfy-gpu-ci\comfy-gpu-ci\comfy-test-logs\SAM3-1010\dev\windows-desktop\debug\electron_inspect\frames\frame_%06d.png':
  Duration: 00:03:57.40, start: 0.000000, bitrate: N/A
  Stream #0:0: Video: png, rgb24(pc, gbr/bt709/iec61966-2-1), 1008x681, 5 fps, 5 tbr, 5 tbn
Stream mapping:
  Stream #0:0 -> #0:0 (png (native) -> h264 (libx264))
Press [q] to stop, [?] for help
[libx264 @ 000001baab62dec0] using cpu capabilities: MMX2 SSE2Fast SSSE3 SSE4.2 AVX FMA3 BMI2 AVX2
[libx264 @ 000001baab62dec0] profile High, level 3.1, 4:2:0, 8-bit
[libx264 @ 000001baab62dec0] 264 - core 164 r3192 c24e06c - H.264/MPEG-4 AVC codec - Copyleft 2003-2024 - http://www.videolan.org/x264.html - options: cabac=1 ref=3 deblock=1:0:0 analyse=0x3:0x113 me=hex subme=7 psy=1 psy_rd=1.00:0.00 mixed_ref=1 me_range=16 chroma_me=1 trellis=1 8x8dct=1 cqm=0 deadzone=21,11 fast_pskip=1 chroma_qp_offset=-2 threads=6 lookahead_threads=1 sliced_threads=0 nr=0 decimate=1 interlaced=0 bluray_compat=0 constrained_intra=0 bframes=3 b_pyramid=2 b_adapt=1 b_bias=0 direct=1 weightb=1 open_gop=0 weightp=2 keyint=250 keyint_min=5 scenecut=40 intra_refresh=0 rc_lookahead=40 rc=crf mbtree=1 crf=23.0 qcomp=0.60 qpmin=0 qpmax=69 qpstep=4 ip_ratio=1.40 aq=1:1.00
Output #0, mp4, to 'D:\a\comfy-gpu-ci\comfy-gpu-ci\comfy-test-logs\SAM3-1010\dev\windows-desktop\debug\electron_inspect\driver.mp4':
  Metadata:
    encoder         : Lavf61.7.100
  Stream #0:0: Video: h264 (avc1 / 0x31637661), yuv420p(tv, unknown/bt709/iec61966-2-1, progressive), 1008x682, q=2-31, 5 fps, 10240 tbn
      Metadata:
        encoder         : Lavc61.19.100 libx264
      Side data:
        cpb: bitrate max/min/avg: 0/0/0 buffer size: 0 vbv_delay: N/A
[vf#0:0 @ 000001baab5d6080] Reconfiguring filter graph because video parameters changed to rgba(pc, gbr), 1008x681
frame=   14 fps=0.0 q=23.0 size=       0KiB time=00:00:02.40 bitrate=   0.2kbits/s speed=4.75x    
frame=   60 fps= 59 q=23.0 size=       0KiB time=00:00:11.60 bitrate=   0.0kbits/s speed=11.3x    
[vf#0:0 @ 000001baab5d6080] Reconfiguring filter graph because video parameters changed to rgb24(pc, gbr), 1008x681
frame=  106 fps= 68 q=23.0 size=     256KiB time=00:00:20.80 bitrate= 100.8kbits/s speed=13.4x    
frame=  157 fps= 76 q=23.0 size=     256KiB time=00:00:31.00 bitrate=  67.7kbits/s speed=  15x    
frame=  211 fps= 81 q=23.0 size=     512KiB time=00:00:41.80 bitrate= 100.4kbits/s speed=  16x    
[vf#0:0 @ 000001baab5d6080] Reconfiguring filter graph because video parameters changed to rgba(pc, gbr), 1008x681
frame=  270 fps= 87 q=23.0 size=     512KiB time=00:00:53.60 bitrate=  78.3kbits/s speed=17.2x    
[vf#0:0 @ 000001baab5d6080] Reconfiguring filter graph because video parameters changed to rgb24(pc, gbr), 1008x681
frame=  320 fps= 88 q=23.0 size=     768KiB time=00:01:03.60 bitrate=  98.9kbits/s speed=17.5x    
frame=  352 fps= 85 q=23.0 size=    1024KiB time=00:01:10.00 bitrate= 119.8kbits/s speed=16.8x    
frame=  408 fps= 87 q=23.0 size=    1024KiB time=00:01:21.20 bitrate= 103.3kbits/s speed=17.3x    
frame=  462 fps= 89 q=23.0 size=    1024KiB time=00:01:32.00 bitrate=  91.2kbits/s speed=17.7x    
[vf#0:0 @ 000001baab5d6080] Reconfiguring filter graph because video parameters changed to rgba(pc, gbr), 1008x681
frame=  508 fps= 89 q=23.0 size=    1024KiB time=00:01:41.20 bitrate=  82.9kbits/s speed=17.7x    
[vf#0:0 @ 000001baab5d6080] Reconfiguring filter graph because video parameters changed to rgb24(pc, gbr), 1008x681
frame=  549 fps= 88 q=23.0 size=    1280KiB time=00:01:49.40 bitrate=  95.9kbits/s speed=17.5x    
frame=  581 fps= 86 q=23.0 size=    1536KiB time=00:01:55.80 bitrate= 108.7kbits/s speed=17.1x    
frame=  641 fps= 88 q=23.0 size=    1536KiB time=00:02:07.80 bitrate=  98.5kbits/s speed=17.6x    
frame=  699 fps= 90 q=23.0 size=    1536KiB time=00:02:19.40 bitrate=  90.3kbits/s speed=17.9x    
[vf#0:0 @ 000001baab5d6080] Reconfiguring filter graph because video parameters changed to rgba(pc, gbr), 1008x681
[vf#0:0 @ 000001baab5d6080] Reconfiguring filter graph because video parameters changed to rgb24(pc, gbr), 1008x681
frame=  751 fps= 90 q=23.0 size=    1536KiB time=00:02:29.80 bitrate=  84.0kbits/s speed=  18x    
frame=  792 fps= 90 q=23.0 size=    1792KiB time=00:02:38.00 bitrate=  92.9kbits/s speed=17.9x    
frame=  845 fps= 91 q=23.0 size=    2048KiB time=00:02:48.60 bitrate=  99.5kbits/s speed=18.1x    
frame=  921 fps= 93 q=23.0 size=    2048KiB time=00:03:03.80 bitrate=  91.3kbits/s speed=18.6x    
[vf#0:0 @ 000001baab5d6080] Reconfiguring filter graph because video parameters changed to rgba(pc, gbr), 1008x681
[vf#0:0 @ 000001baab5d6080] Reconfiguring filter graph because video parameters changed to rgb24(pc, gbr), 1008x681
frame=  978 fps= 94 q=23.0 size=    2048KiB time=00:03:15.20 bitrate=  86.0kbits/s speed=18.8x    
[vf#0:0 @ 000001baab5d6080] Reconfiguring filter graph because video parameters changed to rgba(pc, gbr), 1008x681
[vf#0:0 @ 000001baab5d6080] Reconfiguring filter graph because video parameters changed to rgb24(pc, gbr), 1008x681
frame= 1024 fps= 94 q=23.0 size=    2304KiB time=00:03:24.40 bitrate=  92.3kbits/s speed=18.8x    
frame= 1074 fps= 94 q=23.0 size=    2560KiB time=00:03:34.40 bitrate=  97.8kbits/s speed=18.8x    
frame= 1147 fps= 96 q=23.0 size=    2560KiB time=00:03:49.00 bitrate=  91.6kbits/s speed=19.2x    
[out#0/mp4 @ 000001baab8b7e80] video:2716KiB audio:0KiB subtitle:0KiB other streams:0KiB global headers:0KiB muxing overhead: 0.537094%
frame= 1187 fps= 98 q=-1.0 Lsize=    2730KiB time=00:03:57.00 bitrate=  94.4kbits/s speed=19.6x    
[libx264 @ 000001baab62dec0] frame I:22    Avg QP: 6.87  size: 35755
[libx264 @ 000001baab62dec0] frame P:335   Avg QP:15.20  size:  4225
[libx264 @ 000001baab62dec0] frame B:830   Avg QP:22.53  size:   696
[libx264 @ 000001baab62dec0] consecutive B-frames:  4.7%  5.1%  3.3% 86.9%
[libx264 @ 000001baab62dec0] mb I  I16..4: 62.6% 13.2% 24.2%
[libx264 @ 000001baab62dec0] mb P  I16..4:  2.4%  2.2%  2.5%  P16..4:  1.9%  0.6%  0.4%  0.0%  0.0%    skip:89.8%
[libx264 @ 000001baab62dec0] mb B  I16..4:  0.3%  0.3%  0.1%  B16..8:  3.4%  0.4%  0.1%  direct: 0.2%  skip:95.2%  L0:56.8% L1:40.4% BI: 2.8%
[libx264 @ 000001baab62dec0] 8x8 transform intra:24.7% inter:52.0%
[libx264 @ 000001baab62dec0] coded y,uvDC,uvAC intra: 35.9% 18.2% 14.8% inter: 0.9% 0.7% 0.2%
[libx264 @ 000001baab62dec0] i16 v,h,dc,p: 69% 27%  2%  2%
[libx264 @ 000001baab62dec0] i8 v,h,dc,ddl,ddr,vr,hd,vl,hu: 33% 19% 34%  2%  2%  2%  3%  2%  4%
[libx264 @ 000001baab62dec0] i4 v,h,dc,ddl,ddr,vr,hd,vl,hu: 37% 31% 13%  2%  3%  3%  4%  3%  4%
[libx264 @ 000001baab62dec0] i8c dc,h,v,p: 80% 12%  6%  3%
[libx264 @ 000001baab62dec0] Weighted P-Frames: Y:1.8% UV:1.2%
[libx264 @ 000001baab62dec0] ref P L0: 69.2%  5.4% 15.7%  9.7%
[libx264 @ 000001baab62dec0] ref B L0: 65.2% 33.0%  1.8%
[libx264 @ 000001baab62dec0] ref B L1: 96.6%  3.4%
[libx264 @ 000001baab62dec0] kb/s:93.68
[1040s] Wrote D:\a\comfy-gpu-ci\comfy-gpu-ci\comfy-test-logs\SAM3-1010\dev\windows-desktop\debug\electron_inspect\driver.mp4
ffmpeg version 7.1-essentials_build-www.gyan.dev Copyright (c) 2000-2024 the FFmpeg developers
  built with gcc 14.2.0 (Rev1, Built by MSYS2 project)
  configuration: --enable-gpl --enable-version3 --enable-static --disable-w32threads --disable-autodetect --enable-fontconfig --enable-iconv --enable-gnutls --enable-libxml2 --enable-gmp --enable-bzlib --enable-lzma --enable-zlib --enable-libsrt --enable-libssh --enable-libzmq --enable-avisynth --enable-sdl2 --enable-libwebp --enable-libx264 --enable-libx265 --enable-libxvid --enable-libaom --enable-libopenjpeg --enable-libvpx --enable-mediafoundation --enable-libass --enable-libfreetype --enable-libfribidi --enable-libharfbuzz --enable-libvidstab --enable-libvmaf --enable-libzimg --enable-amf --enable-cuda-llvm --enable-cuvid --enable-dxva2 --enable-d3d11va --enable-d3d12va --enable-ffnvcodec --enable-libvpl --enable-nvdec --enable-nvenc --enable-vaapi --enable-libgme --enable-libopenmpt --enable-libopencore-amrwb --enable-libmp3lame --enable-libtheora --enable-libvo-amrwbenc --enable-libgsm --enable-libopencore-amrnb --enable-libopus --enable-libspeex --enable-libvorbis --enable-librubberband
  libavutil      59. 39.100 / 59. 39.100
  libavcodec     61. 19.100 / 61. 19.100
  libavformat    61.  7.100 / 61.  7.100
  libavdevice    61.  3.100 / 61.  3.100
  libavfilter    10.  4.100 / 10.  4.100
  libswscale      8.  3.100 /  8.  3.100
  libswresample   5.  3.100 /  5.  3.100
  libpostproc    58.  3.100 / 58.  3.100
Input #0, image2, from 'D:\a\comfy-gpu-ci\comfy-gpu-ci\comfy-test-logs\SAM3-1010\dev\windows-desktop\debug\electron_inspect\frames\frame_%06d.png':
  Duration: 00:02:43.40, start: 0.000000, bitrate: N/A
  Stream #0:0: Video: png, rgb24(pc, gbr/bt709/iec61966-2-1), 1008x681, 5 fps, 5 tbr, 5 tbn
Stream mapping:
  Stream #0:0 -> #0:0 (png (native) -> h264 (libx264))
Press [q] to stop, [?] for help
[libx264 @ 000001fa806b8880] using cpu capabilities: MMX2 SSE2Fast SSSE3 SSE4.2 AVX FMA3 BMI2 AVX2
[libx264 @ 000001fa806b8880] profile High, level 3.1, 4:2:0, 8-bit
[libx264 @ 000001fa806b8880] 264 - core 164 r3192 c24e06c - H.264/MPEG-4 AVC codec - Copyleft 2003-2024 - http://www.videolan.org/x264.html - options: cabac=1 ref=3 deblock=1:0:0 analyse=0x3:0x113 me=hex subme=7 psy=1 psy_rd=1.00:0.00 mixed_ref=1 me_range=16 chroma_me=1 trellis=1 8x8dct=1 cqm=0 deadzone=21,11 fast_pskip=1 chroma_qp_offset=-2 threads=6 lookahead_threads=1 sliced_threads=0 nr=0 decimate=1 interlaced=0 bluray_compat=0 constrained_intra=0 bframes=3 b_pyramid=2 b_adapt=1 b_bias=0 direct=1 weightb=1 open_gop=0 weightp=2 keyint=250 keyint_min=5 scenecut=40 intra_refresh=0 rc_lookahead=40 rc=crf mbtree=1 crf=23.0 qcomp=0.60 qpmin=0 qpmax=69 qpstep=4 ip_ratio=1.40 aq=1:1.00
Output #0, mp4, to 'D:\a\comfy-gpu-ci\comfy-gpu-ci\comfy-test-logs\SAM3-1010\dev\windows-desktop\videos\image_seg_point\driver.mp4':
  Metadata:
    encoder         : Lavf61.7.100
  Stream #0:0: Video: h264 (avc1 / 0x31637661), yuv420p(tv, unknown/bt709/iec61966-2-1, progressive), 1008x682, q=2-31, 5 fps, 10240 tbn
      Metadata:
        encoder         : Lavc61.19.100 libx264
      Side data:
        cpb: bitrate max/min/avg: 0/0/0 buffer size: 0 vbv_delay: N/A
frame=   18 fps=0.0 q=23.0 size=       0KiB time=00:00:03.20 bitrate=   0.1kbits/s speed=6.14x    
frame=   76 fps= 71 q=23.0 size=       0KiB time=00:00:14.80 bitrate=   0.0kbits/s speed=13.9x    
frame=  144 fps= 91 q=23.0 size=       0KiB time=N/A bitrate=N/A speed=N/A    
[out#0/mp4 @ 000001fa80085040] video:112KiB audio:0KiB subtitle:0KiB other streams:0KiB global headers:0KiB muxing overhead: 2.439897%
frame=  161 fps= 98 q=-1.0 Lsize=     115KiB time=00:00:31.80 bitrate=  29.5kbits/s speed=19.4x    
[libx264 @ 000001fa806b8880] frame I:1     Avg QP:10.94  size: 48564
[libx264 @ 000001fa806b8880] frame P:41    Avg QP:13.78  size:   928
[libx264 @ 000001fa806b8880] frame B:119   Avg QP:23.03  size:   229
[libx264 @ 000001fa806b8880] consecutive B-frames:  0.6%  2.5%  0.0% 96.9%
[libx264 @ 000001fa806b8880] mb I  I16..4: 43.9% 30.0% 26.2%
[libx264 @ 000001fa806b8880] mb P  I16..4:  0.3%  0.1%  0.2%  P16..4:  0.9%  0.1%  0.1%  0.0%  0.0%    skip:98.3%
[libx264 @ 000001fa806b8880] mb B  I16..4:  0.0%  0.0%  0.0%  B16..8:  5.6%  0.2%  0.0%  direct: 0.0%  skip:94.2%  L0:59.0% L1:40.7% BI: 0.3%
[libx264 @ 000001fa806b8880] 8x8 transform intra:26.9% inter:44.7%
[libx264 @ 000001fa806b8880] coded y,uvDC,uvAC intra: 42.1% 18.8% 15.2% inter: 0.1% 0.1% 0.0%
[libx264 @ 000001fa806b8880] i16 v,h,dc,p: 53% 47%  0%  0%
[libx264 @ 000001fa806b8880] i8 v,h,dc,ddl,ddr,vr,hd,vl,hu: 37% 17% 46%  0%  0%  0%  0%  0%  0%
[libx264 @ 000001fa806b8880] i4 v,h,dc,ddl,ddr,vr,hd,vl,hu: 36% 36% 10%  2%  3%  3%  4%  3%  4%
[libx264 @ 000001fa806b8880] i8c dc,h,v,p: 71% 21%  7%  1%
[libx264 @ 000001fa806b8880] Weighted P-Frames: Y:0.0% UV:0.0%
[libx264 @ 000001fa806b8880] ref P L0: 76.2%  0.4% 17.0%  6.3%
[libx264 @ 000001fa806b8880] ref B L0: 47.9% 50.5%  1.7%
[libx264 @ 000001fa806b8880] ref B L1: 97.8%  2.2%
[libx264 @ 000001fa806b8880] kb/s:28.29
[1041s]   videos/image_seg_point/driver.mp4 placed (frames 371..531)
[1041s]   screenshots/image_seg_point_executed.png placed
ffmpeg version 7.1-essentials_build-www.gyan.dev Copyright (c) 2000-2024 the FFmpeg developers
  built with gcc 14.2.0 (Rev1, Built by MSYS2 project)
  configuration: --enable-gpl --enable-version3 --enable-static --disable-w32threads --disable-autodetect --enable-fontconfig --enable-iconv --enable-gnutls --enable-libxml2 --enable-gmp --enable-bzlib --enable-lzma --enable-zlib --enable-libsrt --enable-libssh --enable-libzmq --enable-avisynth --enable-sdl2 --enable-libwebp --enable-libx264 --enable-libx265 --enable-libxvid --enable-libaom --enable-libopenjpeg --enable-libvpx --enable-mediafoundation --enable-libass --enable-libfreetype --enable-libfribidi --enable-libharfbuzz --enable-libvidstab --enable-libvmaf --enable-libzimg --enable-amf --enable-cuda-llvm --enable-cuvid --enable-dxva2 --enable-d3d11va --enable-d3d12va --enable-ffnvcodec --enable-libvpl --enable-nvdec --enable-nvenc --enable-vaapi --enable-libgme --enable-libopenmpt --enable-libopencore-amrwb --enable-libmp3lame --enable-libtheora --enable-libvo-amrwbenc --enable-libgsm --enable-libopencore-amrnb --enable-libopus --enable-libspeex --enable-libvorbis --enable-librubberband
  libavutil      59. 39.100 / 59. 39.100
  libavcodec     61. 19.100 / 61. 19.100
  libavformat    61.  7.100 / 61.  7.100
  libavdevice    61.  3.100 / 61.  3.100
  libavfilter    10.  4.100 / 10.  4.100
  libswscale      8.  3.100 /  8.  3.100
  libswresample   5.  3.100 /  5.  3.100
  libpostproc    58.  3.100 / 58.  3.100
Input #0, image2, from 'D:\a\comfy-gpu-ci\comfy-gpu-ci\comfy-test-logs\SAM3-1010\dev\windows-desktop\debug\electron_inspect\frames\frame_%06d.png':
  Duration: 00:02:00.80, start: 0.000000, bitrate: N/A
  Stream #0:0: Video: png, rgba(pc, gbr/bt709/iec61966-2-1), 1008x681, 5 fps, 5 tbr, 5 tbn
Stream mapping:
  Stream #0:0 -> #0:0 (png (native) -> h264 (libx264))
Press [q] to stop, [?] for help
[libx264 @ 0000013be5621740] using cpu capabilities: MMX2 SSE2Fast SSSE3 SSE4.2 AVX FMA3 BMI2 AVX2
[libx264 @ 0000013be5621740] profile High, level 3.1, 4:2:0, 8-bit
[libx264 @ 0000013be5621740] 264 - core 164 r3192 c24e06c - H.264/MPEG-4 AVC codec - Copyleft 2003-2024 - http://www.videolan.org/x264.html - options: cabac=1 ref=3 deblock=1:0:0 analyse=0x3:0x113 me=hex subme=7 psy=1 psy_rd=1.00:0.00 mixed_ref=1 me_range=16 chroma_me=1 trellis=1 8x8dct=1 cqm=0 deadzone=21,11 fast_pskip=1 chroma_qp_offset=-2 threads=6 lookahead_threads=1 sliced_threads=0 nr=0 decimate=1 interlaced=0 bluray_compat=0 constrained_intra=0 bframes=3 b_pyramid=2 b_adapt=1 b_bias=0 direct=1 weightb=1 open_gop=0 weightp=2 keyint=250 keyint_min=5 scenecut=40 intra_refresh=0 rc_lookahead=40 rc=crf mbtree=1 crf=23.0 qcomp=0.60 qpmin=0 qpmax=69 qpstep=4 ip_ratio=1.40 aq=1:1.00
Output #0, mp4, to 'D:\a\comfy-gpu-ci\comfy-gpu-ci\comfy-test-logs\SAM3-1010\dev\windows-desktop\videos\image_seg_text\driver.mp4':
  Metadata:
    encoder         : Lavf61.7.100
  Stream #0:0: Video: h264 (avc1 / 0x31637661), yuv420p(tv, unknown/bt709/iec61966-2-1, progressive), 1008x682, q=2-31, 5 fps, 10240 tbn
      Metadata:
        encoder         : Lavc61.19.100 libx264
      Side data:
        cpb: bitrate max/min/avg: 0/0/0 buffer size: 0 vbv_delay: N/A
[vf#0:0 @ 0000013be561c700] Reconfiguring filter graph because video parameters changed to rgb24(pc, gbr), 1008x681
frame=   14 fps=0.0 q=23.0 size=       0KiB time=00:00:02.40 bitrate=   0.2kbits/s speed=4.78x    
frame=   80 fps= 74 q=23.0 size=       0KiB time=00:00:15.60 bitrate=   0.0kbits/s speed=14.5x    
frame=  163 fps=103 q=23.0 size=       0KiB time=N/A bitrate=N/A speed=N/A    
[out#0/mp4 @ 0000013be5615700] video:132KiB audio:0KiB subtitle:0KiB other streams:0KiB global headers:0KiB muxing overhead: 2.183438%
frame=  175 fps=107 q=-1.0 Lsize=     135KiB time=00:00:34.60 bitrate=  32.0kbits/s speed=21.2x    
[libx264 @ 0000013be5621740] frame I:2     Avg QP:11.70  size: 45394
[libx264 @ 0000013be5621740] frame P:44    Avg QP:13.84  size:   813
[libx264 @ 0000013be5621740] frame B:129   Avg QP:23.82  size:    63
[libx264 @ 0000013be5621740] consecutive B-frames:  1.1%  1.1%  1.7% 96.0%
[libx264 @ 0000013be5621740] mb I  I16..4: 45.6% 24.9% 29.4%
[libx264 @ 0000013be5621740] mb P  I16..4:  0.2%  0.1%  0.3%  P16..4:  0.7%  0.1%  0.1%  0.0%  0.0%    skip:98.6%
[libx264 @ 0000013be5621740] mb B  I16..4:  0.1%  0.0%  0.0%  B16..8:  0.5%  0.0%  0.0%  direct: 0.0%  skip:99.3%  L0:52.1% L1:47.4% BI: 0.6%
[libx264 @ 0000013be5621740] 8x8 transform intra:24.2% inter:73.0%
[libx264 @ 0000013be5621740] coded y,uvDC,uvAC intra: 42.1% 22.2% 18.3% inter: 0.1% 0.1% 0.0%
[libx264 @ 0000013be5621740] i16 v,h,dc,p: 52% 41%  0%  7%
[libx264 @ 0000013be5621740] i8 v,h,dc,ddl,ddr,vr,hd,vl,hu: 53% 15% 26%  0%  2%  1%  1%  0%  1%
[libx264 @ 0000013be5621740] i4 v,h,dc,ddl,ddr,vr,hd,vl,hu: 41% 35% 10%  2%  2%  2%  3%  2%  3%
[libx264 @ 0000013be5621740] i8c dc,h,v,p: 68% 16% 10%  6%
[libx264 @ 0000013be5621740] Weighted P-Frames: Y:0.0% UV:0.0%
[libx264 @ 0000013be5621740] ref P L0: 90.2%  1.1%  6.2%  2.5%
[libx264 @ 0000013be5621740] ref B L0: 74.9% 23.9%  1.2%
[libx264 @ 0000013be5621740] ref B L1: 93.3%  6.7%
[libx264 @ 0000013be5621740] kb/s:30.78
[1043s]   videos/image_seg_text/driver.mp4 placed (frames 584..758)
[1043s]   screenshots/image_seg_text_executed.png placed
ffmpeg version 7.1-essentials_build-www.gyan.dev Copyright (c) 2000-2024 the FFmpeg developers
  built with gcc 14.2.0 (Rev1, Built by MSYS2 project)
  configuration: --enable-gpl --enable-version3 --enable-static --disable-w32threads --disable-autodetect --enable-fontconfig --enable-iconv --enable-gnutls --enable-libxml2 --enable-gmp --enable-bzlib --enable-lzma --enable-zlib --enable-libsrt --enable-libssh --enable-libzmq --enable-avisynth --enable-sdl2 --enable-libwebp --enable-libx264 --enable-libx265 --enable-libxvid --enable-libaom --enable-libopenjpeg --enable-libvpx --enable-mediafoundation --enable-libass --enable-libfreetype --enable-libfribidi --enable-libharfbuzz --enable-libvidstab --enable-libvmaf --enable-libzimg --enable-amf --enable-cuda-llvm --enable-cuvid --enable-dxva2 --enable-d3d11va --enable-d3d12va --enable-ffnvcodec --enable-libvpl --enable-nvdec --enable-nvenc --enable-vaapi --enable-libgme --enable-libopenmpt --enable-libopencore-amrwb --enable-libmp3lame --enable-libtheora --enable-libvo-amrwbenc --enable-libgsm --enable-libopencore-amrnb --enable-libopus --enable-libspeex --enable-libvorbis --enable-librubberband
  libavutil      59. 39.100 / 59. 39.100
  libavcodec     61. 19.100 / 61. 19.100
  libavformat    61.  7.100 / 61.  7.100
  libavdevice    61.  3.100 / 61.  3.100
  libavfilter    10.  4.100 / 10.  4.100
  libswscale      8.  3.100 /  8.  3.100
  libswresample   5.  3.100 /  5.  3.100
  libpostproc    58.  3.100 / 58.  3.100
Input #0, image2, from 'D:\a\comfy-gpu-ci\comfy-gpu-ci\comfy-test-logs\SAM3-1010\dev\windows-desktop\debug\electron_inspect\frames\frame_%06d.png':
  Duration: 00:01:16.00, start: 0.000000, bitrate: N/A
  Stream #0:0: Video: png, rgb24(pc, gbr/bt709/iec61966-2-1), 1008x681, 5 fps, 5 tbr, 5 tbn
Stream mapping:
  Stream #0:0 -> #0:0 (png (native) -> h264 (libx264))
Press [q] to stop, [?] for help
[libx264 @ 00000287ccb7ec00] using cpu capabilities: MMX2 SSE2Fast SSSE3 SSE4.2 AVX FMA3 BMI2 AVX2
[libx264 @ 00000287ccb7ec00] profile High, level 3.1, 4:2:0, 8-bit
[libx264 @ 00000287ccb7ec00] 264 - core 164 r3192 c24e06c - H.264/MPEG-4 AVC codec - Copyleft 2003-2024 - http://www.videolan.org/x264.html - options: cabac=1 ref=3 deblock=1:0:0 analyse=0x3:0x113 me=hex subme=7 psy=1 psy_rd=1.00:0.00 mixed_ref=1 me_range=16 chroma_me=1 trellis=1 8x8dct=1 cqm=0 deadzone=21,11 fast_pskip=1 chroma_qp_offset=-2 threads=6 lookahead_threads=1 sliced_threads=0 nr=0 decimate=1 interlaced=0 bluray_compat=0 constrained_intra=0 bframes=3 b_pyramid=2 b_adapt=1 b_bias=0 direct=1 weightb=1 open_gop=0 weightp=2 keyint=250 keyint_min=5 scenecut=40 intra_refresh=0 rc_lookahead=40 rc=crf mbtree=1 crf=23.0 qcomp=0.60 qpmin=0 qpmax=69 qpstep=4 ip_ratio=1.40 aq=1:1.00
Output #0, mp4, to 'D:\a\comfy-gpu-ci\comfy-gpu-ci\comfy-test-logs\SAM3-1010\dev\windows-desktop\videos\scene_seg\driver.mp4':
  Metadata:
    encoder         : Lavf61.7.100
  Stream #0:0: Video: h264 (avc1 / 0x31637661), yuv420p(tv, unknown/bt709/iec61966-2-1, progressive), 1008x682, q=2-31, 5 fps, 10240 tbn
      Metadata:
        encoder         : Lavc61.19.100 libx264
      Side data:
        cpb: bitrate max/min/avg: 0/0/0 buffer size: 0 vbv_delay: N/A
frame=   16 fps=0.0 q=23.0 size=       0KiB time=00:00:02.80 bitrate=   0.1kbits/s speed=5.54x    
frame=   92 fps= 87 q=23.0 size=       0KiB time=00:00:18.00 bitrate=   0.0kbits/s speed=  17x    
[out#0/mp4 @ 00000287ccabbb80] video:137KiB audio:0KiB subtitle:0KiB other streams:0KiB global headers:0KiB muxing overhead: 2.147719%
frame=  180 fps=123 q=-1.0 Lsize=     140KiB time=00:00:35.60 bitrate=  32.1kbits/s speed=24.3x    
[libx264 @ 00000287ccb7ec00] frame I:2     Avg QP:12.11  size: 35224
[libx264 @ 00000287ccb7ec00] frame P:46    Avg QP:14.01  size:  1220
[libx264 @ 00000287ccb7ec00] frame B:132   Avg QP:23.34  size:    97
[libx264 @ 00000287ccb7ec00] consecutive B-frames:  1.7%  1.1%  1.7% 95.6%
[libx264 @ 00000287ccb7ec00] mb I  I16..4: 41.0% 36.8% 22.2%
[libx264 @ 00000287ccb7ec00] mb P  I16..4:  0.6%  0.2%  0.5%  P16..4:  0.8%  0.1%  0.0%  0.0%  0.0%    skip:97.7%
[libx264 @ 00000287ccb7ec00] mb B  I16..4:  0.0%  0.1%  0.0%  B16..8:  0.7%  0.0%  0.0%  direct: 0.0%  skip:99.1%  L0:55.6% L1:43.5% BI: 0.9%
[libx264 @ 00000287ccb7ec00] 8x8 transform intra:33.3% inter:52.1%
[libx264 @ 00000287ccb7ec00] coded y,uvDC,uvAC intra: 17.8% 21.3% 17.3% inter: 0.1% 0.1% 0.0%
[libx264 @ 00000287ccb7ec00] i16 v,h,dc,p: 57% 37%  0%  5%
[libx264 @ 00000287ccb7ec00] i8 v,h,dc,ddl,ddr,vr,hd,vl,hu: 49% 19% 28%  0%  2%  1%  1%  0%  1%
[libx264 @ 00000287ccb7ec00] i4 v,h,dc,ddl,ddr,vr,hd,vl,hu: 34% 35% 14%  2%  3%  3%  4%  2%  4%
[libx264 @ 00000287ccb7ec00] i8c dc,h,v,p: 70% 15% 10%  5%
[libx264 @ 00000287ccb7ec00] Weighted P-Frames: Y:0.0% UV:0.0%
[libx264 @ 00000287ccb7ec00] ref P L0: 81.9%  3.4% 12.8%  1.9%
[libx264 @ 00000287ccb7ec00] ref B L0: 74.4% 23.6%  2.0%
[libx264 @ 00000287ccb7ec00] ref B L1: 92.6%  7.4%
[libx264 @ 00000287ccb7ec00] kb/s:30.96
[1044s]   videos/scene_seg/driver.mp4 placed (frames 808..987)
[1044s]   screenshots/scene_seg_executed.png placed
ffmpeg version 7.1-essentials_build-www.gyan.dev Copyright (c) 2000-2024 the FFmpeg developers
  built with gcc 14.2.0 (Rev1, Built by MSYS2 project)
  configuration: --enable-gpl --enable-version3 --enable-static --disable-w32threads --disable-autodetect --enable-fontconfig --enable-iconv --enable-gnutls --enable-libxml2 --enable-gmp --enable-bzlib --enable-lzma --enable-zlib --enable-libsrt --enable-libssh --enable-libzmq --enable-avisynth --enable-sdl2 --enable-libwebp --enable-libx264 --enable-libx265 --enable-libxvid --enable-libaom --enable-libopenjpeg --enable-libvpx --enable-mediafoundation --enable-libass --enable-libfreetype --enable-libfribidi --enable-libharfbuzz --enable-libvidstab --enable-libvmaf --enable-libzimg --enable-amf --enable-cuda-llvm --enable-cuvid --enable-dxva2 --enable-d3d11va --enable-d3d12va --enable-ffnvcodec --enable-libvpl --enable-nvdec --enable-nvenc --enable-vaapi --enable-libgme --enable-libopenmpt --enable-libopencore-amrwb --enable-libmp3lame --enable-libtheora --enable-libvo-amrwbenc --enable-libgsm --enable-libopencore-amrnb --enable-libopus --enable-libspeex --enable-libvorbis --enable-librubberband
  libavutil      59. 39.100 / 59. 39.100
  libavcodec     61. 19.100 / 61. 19.100
  libavformat    61.  7.100 / 61.  7.100
  libavdevice    61.  3.100 / 61.  3.100
  libavfilter    10.  4.100 / 10.  4.100
  libswscale      8.  3.100 /  8.  3.100
  libswresample   5.  3.100 /  5.  3.100
  libpostproc    58.  3.100 / 58.  3.100
Input #0, image2, from 'D:\a\comfy-gpu-ci\comfy-gpu-ci\comfy-test-logs\SAM3-1010\dev\windows-desktop\debug\electron_inspect\frames\frame_%06d.png':
  Duration: 00:00:30.00, start: 0.000000, bitrate: N/A
  Stream #0:0: Video: png, rgb24(pc, gbr/bt709/iec61966-2-1), 1008x681, 5 fps, 5 tbr, 5 tbn
Stream mapping:
  Stream #0:0 -> #0:0 (png (native) -> h264 (libx264))
Press [q] to stop, [?] for help
[libx264 @ 000002a663605040] using cpu capabilities: MMX2 SSE2Fast SSSE3 SSE4.2 AVX FMA3 BMI2 AVX2
[libx264 @ 000002a663605040] profile High, level 3.1, 4:2:0, 8-bit
[libx264 @ 000002a663605040] 264 - core 164 r3192 c24e06c - H.264/MPEG-4 AVC codec - Copyleft 2003-2024 - http://www.videolan.org/x264.html - options: cabac=1 ref=3 deblock=1:0:0 analyse=0x3:0x113 me=hex subme=7 psy=1 psy_rd=1.00:0.00 mixed_ref=1 me_range=16 chroma_me=1 trellis=1 8x8dct=1 cqm=0 deadzone=21,11 fast_pskip=1 chroma_qp_offset=-2 threads=6 lookahead_threads=1 sliced_threads=0 nr=0 decimate=1 interlaced=0 bluray_compat=0 constrained_intra=0 bframes=3 b_pyramid=2 b_adapt=1 b_bias=0 direct=1 weightb=1 open_gop=0 weightp=2 keyint=250 keyint_min=5 scenecut=40 intra_refresh=0 rc_lookahead=40 rc=crf mbtree=1 crf=23.0 qcomp=0.60 qpmin=0 qpmax=69 qpstep=4 ip_ratio=1.40 aq=1:1.00
Output #0, mp4, to 'D:\a\comfy-gpu-ci\comfy-gpu-ci\comfy-test-logs\SAM3-1010\dev\windows-desktop\videos\scene_seg_interactive\driver.mp4':
  Metadata:
    encoder         : Lavf61.7.100
  Stream #0:0: Video: h264 (avc1 / 0x31637661), yuv420p(tv, unknown/bt709/iec61966-2-1, progressive), 1008x682, q=2-31, 5 fps, 10240 tbn
      Metadata:
        encoder         : Lavc61.19.100 libx264
      Side data:
        cpb: bitrate max/min/avg: 0/0/0 buffer size: 0 vbv_delay: N/A
[vf#0:0 @ 000002a663605dc0] Reconfiguring filter graph because video parameters changed to rgba(pc, gbr), 1008x681
[vf#0:0 @ 000002a663605dc0] Reconfiguring filter graph because video parameters changed to rgb24(pc, gbr), 1008x681
frame=   18 fps=0.0 q=23.0 size=       0KiB time=00:00:03.20 bitrate=   0.1kbits/s speed= 6.2x    
frame=   75 fps= 73 q=23.0 size=       0KiB time=00:00:14.60 bitrate=   0.0kbits/s speed=14.2x    
[out#0/mp4 @ 000002a66354bbc0] video:141KiB audio:0KiB subtitle:0KiB other streams:0KiB global headers:0KiB muxing overhead: 1.832269%
frame=  150 fps=105 q=-1.0 Lsize=     144KiB time=00:00:29.60 bitrate=  39.8kbits/s speed=20.7x    
[libx264 @ 000002a663605040] frame I:2     Avg QP:11.86  size: 34590
[libx264 @ 000002a663605040] frame P:39    Avg QP:15.79  size:  1333
[libx264 @ 000002a663605040] frame B:109   Avg QP:21.62  size:   209
[libx264 @ 000002a663605040] consecutive B-frames:  2.7%  1.3%  0.0% 96.0%
[libx264 @ 000002a663605040] mb I  I16..4: 40.1% 36.6% 23.3%
[libx264 @ 000002a663605040] mb P  I16..4:  0.8%  0.3%  0.5%  P16..4:  1.0%  0.2%  0.1%  0.0%  0.0%    skip:97.2%
[libx264 @ 000002a663605040] mb B  I16..4:  0.1%  0.0%  0.0%  B16..8:  5.9%  0.1%  0.0%  direct: 0.0%  skip:93.8%  L0:72.8% L1:27.1% BI: 0.1%
[libx264 @ 000002a663605040] 8x8 transform intra:32.5% inter:69.5%
[libx264 @ 000002a663605040] coded y,uvDC,uvAC intra: 26.9% 20.2% 16.9% inter: 0.1% 0.2% 0.1%
[libx264 @ 000002a663605040] i16 v,h,dc,p: 45% 49%  1%  6%
[libx264 @ 000002a663605040] i8 v,h,dc,ddl,ddr,vr,hd,vl,hu: 44% 22% 30%  0%  2%  1%  1%  0%  1%
[libx264 @ 000002a663605040] i4 v,h,dc,ddl,ddr,vr,hd,vl,hu: 36% 36% 12%  2%  3%  2%  3%  2%  3%
[libx264 @ 000002a663605040] i8c dc,h,v,p: 71% 16%  9%  5%
[libx264 @ 000002a663605040] Weighted P-Frames: Y:0.0% UV:0.0%
[libx264 @ 000002a663605040] ref P L0: 77.2%  3.3% 12.9%  6.6%
[libx264 @ 000002a663605040] ref B L0: 42.6% 57.0%  0.4%
[libx264 @ 000002a663605040] ref B L1: 98.6%  1.4%
[libx264 @ 000002a663605040] kb/s:38.40
[1046s]   videos/scene_seg_interactive/driver.mp4 placed (frames 1038..1187)
[1046s]   screenshots/scene_seg_interactive_executed.png placed
[1046s]   removed D:\a\comfy-gpu-ci\comfy-gpu-ci\comfy-test-logs\SAM3-1010\dev\windows-desktop\debug\electron_inspect\frames after successful encode
